<svg width="58" height="58" viewBox="0 0 58 58" fill="none" xmlns="http://www.w3.org/2000/svg">
<g filter="url(#filter0_d)">
<path d="M29 50C15.1929 50 4 38.8071 4 25C4 11.1929 15.1929 0 29 0C42.8071 0 54 11.1929 54 25C53.9848 38.8008 42.8008 49.9848 29 50ZM9 25.43C9.11829 36.4331 18.1028 45.2739 29.1063 45.215C40.1099 45.1556 48.9988 36.2187 48.9988 25.215C48.9988 14.2113 40.1099 5.27444 29.1063 5.21499C18.1028 5.15614 9.11829 13.9969 9 25V25.43ZM31.5 37.5H26.5V27.5H16.5V22.5H26.5V12.5H31.5V22.5H41.5V27.5H31.5V37.5Z" fill="url(#paint0_linear)"/>
</g>
<defs>
<filter id="filter0_d" x="0" y="0" width="58" height="58" filterUnits="userSpaceOnUse" color-interpolation-filters="sRGB">
<feFlood flood-opacity="0" result="BackgroundImageFix"/>
<feColorMatrix in="SourceAlpha" type="matrix" values="0 0 0 0 0 0 0 0 0 0 0 0 0 0 0 0 0 0 127 0"/>
<feOffset dy="4"/>
<feGaussianBlur stdDeviation="2"/>
<feColorMatrix type="matrix" values="0 0 0 0 0 0 0 0 0 0 0 0 0 0 0 0 0 0 0.25 0"/>
<feBlend mode="normal" in2="BackgroundImageFix" result="effect1_dropShadow"/>
<feBlend mode="normal" in="SourceGraphic" in2="effect1_dropShadow" result="shape"/>
</filter>
<linearGradient id="paint0_linear" x1="29" y1="0" x2="29" y2="50" gradientUnits="userSpaceOnUse">
<stop stop-color="#E087D2"/>
<stop offset="1" stop-color="#3E72F5" stop-opacity="0.98"/>
</linearGradient>
</defs>
</svg>
