<svg width="258" height="46" viewBox="0 0 258 46" fill="none" xmlns="http://www.w3.org/2000/svg">
<g filter="url(#filter0_d)">
<rect x="5" y="1" width="248" height="36" rx="9" fill="white" stroke="#798FFE" stroke-width="2"/>
<path d="M36.2695 10.4023C34.3867 10.4023 32.8984 11.0312 31.8047 12.2891C30.7188 13.5391 30.1758 15.2539 30.1758 17.4336C30.1758 19.6758 30.6992 21.4102 31.7461 22.6367C32.8008 23.8555 34.3008 24.4648 36.2461 24.4648C37.4414 24.4648 38.8047 24.25 40.3359 23.8203V25.5664C39.1484 26.0117 37.6836 26.2344 35.9414 26.2344C33.418 26.2344 31.4688 25.4688 30.0938 23.9375C28.7266 22.4062 28.043 20.2305 28.043 17.4102C28.043 15.6445 28.3711 14.0977 29.0273 12.7695C29.6914 11.4414 30.6445 10.418 31.8867 9.69922C33.1367 8.98047 34.6055 8.62109 36.293 8.62109C38.0898 8.62109 39.6602 8.94922 41.0039 9.60547L40.1602 11.3164C38.8633 10.707 37.5664 10.4023 36.2695 10.4023ZM49.6406 12.9219C50.2109 12.9219 50.7227 12.9688 51.1758 13.0625L50.9062 14.8672C50.375 14.75 49.9062 14.6914 49.5 14.6914C48.4609 14.6914 47.5703 15.1133 46.8281 15.957C46.0938 16.8008 45.7266 17.8516 45.7266 19.1094V26H43.7812V13.1562H45.3867L45.6094 15.5352H45.7031C46.1797 14.6992 46.7539 14.0547 47.4258 13.6016C48.0977 13.1484 48.8359 12.9219 49.6406 12.9219ZM59.0039 26.2344C57.1055 26.2344 55.6055 25.6562 54.5039 24.5C53.4102 23.3438 52.8633 21.7383 52.8633 19.6836C52.8633 17.6133 53.3711 15.9688 54.3867 14.75C55.4102 13.5312 56.7812 12.9219 58.5 12.9219C60.1094 12.9219 61.3828 13.4531 62.3203 14.5156C63.2578 15.5703 63.7266 16.9648 63.7266 18.6992V19.9297H54.8789C54.918 21.4375 55.2969 22.582 56.0156 23.3633C56.7422 24.1445 57.7617 24.5352 59.0742 24.5352C60.457 24.5352 61.8242 24.2461 63.1758 23.668V25.4023C62.4883 25.6992 61.8359 25.9102 61.2188 26.0352C60.6094 26.168 59.8711 26.2344 59.0039 26.2344ZM58.4766 14.5508C57.4453 14.5508 56.6211 14.8867 56.0039 15.5586C55.3945 16.2305 55.0352 17.1602 54.9258 18.3477H61.6406C61.6406 17.1211 61.3672 16.1836 60.8203 15.5352C60.2734 14.8789 59.4922 14.5508 58.4766 14.5508ZM74.9531 26L74.5664 24.1719H74.4727C73.832 24.9766 73.1914 25.5234 72.5508 25.8125C71.918 26.0938 71.125 26.2344 70.1719 26.2344C68.8984 26.2344 67.8984 25.9062 67.1719 25.25C66.4531 24.5938 66.0938 23.6602 66.0938 22.4492C66.0938 19.8555 68.168 18.4961 72.3164 18.3711L74.4961 18.3008V17.5039C74.4961 16.4961 74.2773 15.7539 73.8398 15.2773C73.4102 14.793 72.7188 14.5508 71.7656 14.5508C70.6953 14.5508 69.4844 14.8789 68.1328 15.5352L67.5352 14.0469C68.168 13.7031 68.8594 13.4336 69.6094 13.2383C70.3672 13.043 71.125 12.9453 71.8828 12.9453C73.4141 12.9453 74.5469 13.2852 75.2812 13.9648C76.0234 14.6445 76.3945 15.7344 76.3945 17.2344V26H74.9531ZM70.5586 24.6289C71.7695 24.6289 72.7188 24.2969 73.4062 23.6328C74.1016 22.9688 74.4492 22.0391 74.4492 20.8438V19.6836L72.5039 19.7656C70.957 19.8203 69.8398 20.0625 69.1523 20.4922C68.4727 20.9141 68.1328 21.5742 68.1328 22.4727C68.1328 23.1758 68.3438 23.7109 68.7656 24.0781C69.1953 24.4453 69.793 24.6289 70.5586 24.6289ZM84.5625 24.6289C84.9062 24.6289 85.2383 24.6055 85.5586 24.5586C85.8789 24.5039 86.1328 24.4492 86.3203 24.3945V25.8828C86.1094 25.9844 85.7969 26.0664 85.3828 26.1289C84.9766 26.1992 84.6094 26.2344 84.2812 26.2344C81.7969 26.2344 80.5547 24.9258 80.5547 22.3086V14.668H78.7148V13.7305L80.5547 12.9219L81.375 10.1797H82.5V13.1562H86.2266V14.668H82.5V22.2266C82.5 23 82.6836 23.5938 83.0508 24.0078C83.418 24.4219 83.9219 24.6289 84.5625 24.6289ZM94.3242 26.2344C92.4258 26.2344 90.9258 25.6562 89.8242 24.5C88.7305 23.3438 88.1836 21.7383 88.1836 19.6836C88.1836 17.6133 88.6914 15.9688 89.707 14.75C90.7305 13.5312 92.1016 12.9219 93.8203 12.9219C95.4297 12.9219 96.7031 13.4531 97.6406 14.5156C98.5781 15.5703 99.0469 16.9648 99.0469 18.6992V19.9297H90.1992C90.2383 21.4375 90.6172 22.582 91.3359 23.3633C92.0625 24.1445 93.082 24.5352 94.3945 24.5352C95.7773 24.5352 97.1445 24.2461 98.4961 23.668V25.4023C97.8086 25.6992 97.1562 25.9102 96.5391 26.0352C95.9297 26.168 95.1914 26.2344 94.3242 26.2344ZM93.7969 14.5508C92.7656 14.5508 91.9414 14.8867 91.3242 15.5586C90.7148 16.2305 90.3555 17.1602 90.2461 18.3477H96.9609C96.9609 17.1211 96.6875 16.1836 96.1406 15.5352C95.5938 14.8789 94.8125 14.5508 93.7969 14.5508ZM116.508 26L116.121 24.1719H116.027C115.387 24.9766 114.746 25.5234 114.105 25.8125C113.473 26.0938 112.68 26.2344 111.727 26.2344C110.453 26.2344 109.453 25.9062 108.727 25.25C108.008 24.5938 107.648 23.6602 107.648 22.4492C107.648 19.8555 109.723 18.4961 113.871 18.3711L116.051 18.3008V17.5039C116.051 16.4961 115.832 15.7539 115.395 15.2773C114.965 14.793 114.273 14.5508 113.32 14.5508C112.25 14.5508 111.039 14.8789 109.688 15.5352L109.09 14.0469C109.723 13.7031 110.414 13.4336 111.164 13.2383C111.922 13.043 112.68 12.9453 113.438 12.9453C114.969 12.9453 116.102 13.2852 116.836 13.9648C117.578 14.6445 117.949 15.7344 117.949 17.2344V26H116.508ZM112.113 24.6289C113.324 24.6289 114.273 24.2969 114.961 23.6328C115.656 22.9688 116.004 22.0391 116.004 20.8438V19.6836L114.059 19.7656C112.512 19.8203 111.395 20.0625 110.707 20.4922C110.027 20.9141 109.688 21.5742 109.688 22.4727C109.688 23.1758 109.898 23.7109 110.32 24.0781C110.75 24.4453 111.348 24.6289 112.113 24.6289ZM130.758 26V17.6914C130.758 16.6445 130.52 15.8633 130.043 15.3477C129.566 14.832 128.82 14.5742 127.805 14.5742C126.461 14.5742 125.477 14.9375 124.852 15.6641C124.227 16.3906 123.914 17.5898 123.914 19.2617V26H121.969V13.1562H123.551L123.867 14.9141H123.961C124.359 14.2812 124.918 13.793 125.637 13.4492C126.355 13.0977 127.156 12.9219 128.039 12.9219C129.586 12.9219 130.75 13.2969 131.531 14.0469C132.312 14.7891 132.703 15.9805 132.703 17.6211V26H130.758ZM154.008 26L151.875 20.5508H145.008L142.898 26H140.883L147.656 8.79688H149.332L156.07 26H154.008ZM151.254 18.7578L149.262 13.4492C149.004 12.7773 148.738 11.9531 148.465 10.9766C148.293 11.7266 148.047 12.5508 147.727 13.4492L145.711 18.7578H151.254ZM163.266 26.2344C161.406 26.2344 159.965 25.6641 158.941 24.5234C157.926 23.375 157.418 21.7539 157.418 19.6602C157.418 17.5117 157.934 15.8516 158.965 14.6797C160.004 13.5078 161.48 12.9219 163.395 12.9219C164.012 12.9219 164.629 12.9883 165.246 13.1211C165.863 13.2539 166.348 13.4102 166.699 13.5898L166.102 15.2422C165.672 15.0703 165.203 14.9297 164.695 14.8203C164.188 14.7031 163.738 14.6445 163.348 14.6445C160.738 14.6445 159.434 16.3086 159.434 19.6367C159.434 21.2148 159.75 22.4258 160.383 23.2695C161.023 24.1133 161.969 24.5352 163.219 24.5352C164.289 24.5352 165.387 24.3047 166.512 23.8438V25.5664C165.652 26.0117 164.57 26.2344 163.266 26.2344ZM174.703 26.2344C172.844 26.2344 171.402 25.6641 170.379 24.5234C169.363 23.375 168.855 21.7539 168.855 19.6602C168.855 17.5117 169.371 15.8516 170.402 14.6797C171.441 13.5078 172.918 12.9219 174.832 12.9219C175.449 12.9219 176.066 12.9883 176.684 13.1211C177.301 13.2539 177.785 13.4102 178.137 13.5898L177.539 15.2422C177.109 15.0703 176.641 14.9297 176.133 14.8203C175.625 14.7031 175.176 14.6445 174.785 14.6445C172.176 14.6445 170.871 16.3086 170.871 19.6367C170.871 21.2148 171.188 22.4258 171.82 23.2695C172.461 24.1133 173.406 24.5352 174.656 24.5352C175.727 24.5352 176.824 24.3047 177.949 23.8438V25.5664C177.09 26.0117 176.008 26.2344 174.703 26.2344ZM192.094 19.5664C192.094 21.6602 191.566 23.2969 190.512 24.4766C189.457 25.6484 188 26.2344 186.141 26.2344C184.992 26.2344 183.973 25.9648 183.082 25.4258C182.191 24.8867 181.504 24.1133 181.02 23.1055C180.535 22.0977 180.293 20.918 180.293 19.5664C180.293 17.4727 180.816 15.8438 181.863 14.6797C182.91 13.5078 184.363 12.9219 186.223 12.9219C188.02 12.9219 189.445 13.5195 190.5 14.7148C191.562 15.9102 192.094 17.5273 192.094 19.5664ZM182.309 19.5664C182.309 21.207 182.637 22.457 183.293 23.3164C183.949 24.1758 184.914 24.6055 186.188 24.6055C187.461 24.6055 188.426 24.1797 189.082 23.3281C189.746 22.4688 190.078 21.2148 190.078 19.5664C190.078 17.9336 189.746 16.6953 189.082 15.8516C188.426 15 187.453 14.5742 186.164 14.5742C184.891 14.5742 183.93 14.9922 183.281 15.8281C182.633 16.6641 182.309 17.9102 182.309 19.5664ZM197.344 13.1562V21.4883C197.344 22.5352 197.582 23.3164 198.059 23.832C198.535 24.3477 199.281 24.6055 200.297 24.6055C201.641 24.6055 202.621 24.2383 203.238 23.5039C203.863 22.7695 204.176 21.5703 204.176 19.9062V13.1562H206.121V26H204.516L204.234 24.2773H204.129C203.73 24.9102 203.176 25.3945 202.465 25.7305C201.762 26.0664 200.957 26.2344 200.051 26.2344C198.488 26.2344 197.316 25.8633 196.535 25.1211C195.762 24.3789 195.375 23.1914 195.375 21.5586V13.1562H197.344ZM219.047 26V17.6914C219.047 16.6445 218.809 15.8633 218.332 15.3477C217.855 14.832 217.109 14.5742 216.094 14.5742C214.75 14.5742 213.766 14.9375 213.141 15.6641C212.516 16.3906 212.203 17.5898 212.203 19.2617V26H210.258V13.1562H211.84L212.156 14.9141H212.25C212.648 14.2812 213.207 13.793 213.926 13.4492C214.645 13.0977 215.445 12.9219 216.328 12.9219C217.875 12.9219 219.039 13.2969 219.82 14.0469C220.602 14.7891 220.992 15.9805 220.992 17.6211V26H219.047ZM229.148 24.6289C229.492 24.6289 229.824 24.6055 230.145 24.5586C230.465 24.5039 230.719 24.4492 230.906 24.3945V25.8828C230.695 25.9844 230.383 26.0664 229.969 26.1289C229.562 26.1992 229.195 26.2344 228.867 26.2344C226.383 26.2344 225.141 24.9258 225.141 22.3086V14.668H223.301V13.7305L225.141 12.9219L225.961 10.1797H227.086V13.1562H230.812V14.668H227.086V22.2266C227.086 23 227.27 23.5938 227.637 24.0078C228.004 24.4219 228.508 24.6289 229.148 24.6289Z" fill="#1B2A4F"/>
</g>
<defs>
<filter id="filter0_d" x="0" y="0" width="258" height="46" filterUnits="userSpaceOnUse" color-interpolation-filters="sRGB">
<feFlood flood-opacity="0" result="BackgroundImageFix"/>
<feColorMatrix in="SourceAlpha" type="matrix" values="0 0 0 0 0 0 0 0 0 0 0 0 0 0 0 0 0 0 127 0"/>
<feOffset dy="4"/>
<feGaussianBlur stdDeviation="2"/>
<feColorMatrix type="matrix" values="0 0 0 0 0 0 0 0 0 0 0 0 0 0 0 0 0 0 0.25 0"/>
<feBlend mode="normal" in2="BackgroundImageFix" result="effect1_dropShadow"/>
<feBlend mode="normal" in="SourceGraphic" in2="effect1_dropShadow" result="shape"/>
</filter>
</defs>
</svg>
